<?xml version="1.0" encoding="UTF-8"?><svg id="b" xmlns="http://www.w3.org/2000/svg" viewBox="0 0 114.39 39.74"><defs><style>.d{fill:#fff;}</style></defs><g id="c"><path class="d" d="m1.54,17.54c.94.58,2.3,1.06,3.74,1.06,2.14,0,3.38-1.13,3.38-2.76,0-1.51-.86-2.38-3.05-3.22-2.64-.94-4.27-2.3-4.27-4.58,0-2.52,2.09-4.39,5.23-4.39,1.66,0,2.86.38,3.58.79l-.58,1.7c-.53-.29-1.61-.77-3.07-.77-2.21,0-3.05,1.32-3.05,2.42,0,1.51.98,2.26,3.22,3.12,2.74,1.06,4.13,2.38,4.13,4.75,0,2.5-1.85,4.66-5.66,4.66-1.56,0-3.26-.46-4.13-1.03l.53-1.75Z"/><path class="d" d="m15.74,3.91v16.18h-2.09V3.91h2.09Z"/><path class="d" d="m19.39,3.91h2.09v14.43h6.91v1.75h-9V3.91Z"/><path class="d" d="m32.81,3.91v16.18h-2.09V3.91h2.09Z"/><path class="d" d="m47.76,19.56c-.77.38-2.3.77-4.27.77-4.56,0-7.99-2.88-7.99-8.19s3.43-8.5,8.45-8.5c2.02,0,3.29.43,3.84.72l-.5,1.7c-.79-.38-1.92-.67-3.26-.67-3.79,0-6.31,2.42-6.31,6.67,0,3.96,2.28,6.5,6.22,6.5,1.27,0,2.57-.26,3.41-.67l.43,1.66Z"/><path class="d" d="m63.7,11.83c0,5.57-3.38,8.52-7.51,8.52s-7.27-3.31-7.27-8.21c0-5.14,3.19-8.5,7.51-8.5s7.27,3.38,7.27,8.18Zm-12.55.26c0,3.46,1.87,6.55,5.16,6.55s5.18-3.05,5.18-6.72c0-3.22-1.68-6.58-5.16-6.58s-5.18,3.19-5.18,6.74Z"/><path class="d" d="m66.41,20.09V3.91h2.28l5.18,8.18c1.2,1.9,2.14,3.6,2.9,5.26l.05-.02c-.19-2.16-.24-4.13-.24-6.65V3.91h1.97v16.18h-2.11l-5.14-8.21c-1.13-1.8-2.21-3.65-3.02-5.4l-.07.02c.12,2.04.17,3.98.17,6.67v6.91h-1.97Z"/></g></svg>